<svg xmlns="http://www.w3.org/2000/svg" viewBox="0 0 498.71 199.97"><style>.st0{fill-rule:evenodd;clip-rule:evenodd;fill:#00a7e3}</style><path d="M96.9 165.42v-14.34c-3.26 5.8-7.82 10.1-13.72 12.85s-13.47 4.12-22.66 4.12c-17.23 0-31.64-5.9-43.18-17.66S0 124 0 106.56c0-8.21 1.45-15.99 4.35-23.34 2.89-7.35 7.01-13.83 12.41-19.4 5.79-6.16 12.23-10.68 19.29-13.6 7.06-2.94 15.02-4.43 23.85-4.43 8.47 0 15.78 1.41 21.9 4.24 6.12 2.82 11.03 7.1 14.76 12.85V48.76h26.53v116.66M27.8 106.13c0 9.81 3.26 18.02 9.82 24.65 6.51 6.62 14.47 9.91 23.88 9.91 8.54 0 16.07-3.33 22.59-9.95 6.47-6.65 9.74-14.44 9.74-23.34 0-9.48-3.26-17.62-9.81-24.44-6.51-6.83-14.19-10.23-22.95-10.23-9.15 0-17 3.21-23.52 9.7-6.49 6.47-9.75 14.36-9.75 23.7M231.1 58.1V11.01h26.71v154.4H231.1v-9.56c-5.35 4.27-11.04 7.43-16.97 9.52-5.93 2.06-12.38 3.11-19.29 3.11-7.35 0-14.26-1.16-20.77-3.52a54.47 54.47 0 01-17.52-10.16c-7.06-6.08-12.49-13.29-16.25-21.57-3.8-8.33-5.68-17.12-5.68-26.47 0-8.61 1.74-16.89 5.25-24.82 3.5-7.94 8.44-14.77 14.8-20.56 5.28-5.03 11.37-8.84 18.23-11.47 6.85-2.61 14.16-3.92 21.94-3.92 7.5 0 14.15.99 19.94 2.94 5.78 1.93 11.22 5 16.32 9.17m-1.16 49.51c0-9.95-3.18-18.28-9.48-24.94-6.34-6.62-14.27-9.95-23.71-9.95-9.34 0-17.3 3.4-23.92 10.16-6.63 6.8-9.92 14.92-9.92 24.29 0 9.85 3.33 18.03 9.95 24.58 6.66 6.55 15.06 9.8 25.15 9.8 8.9 0 16.43-3.29 22.62-9.87 6.19-6.55 9.31-14.59 9.31-24.07m71.44 8.07c.91 8.4 4.27 15.05 10.03 19.87 5.75 4.85 13.21 7.27 22.33 7.27 6.04 0 11.51-1.27 16.36-3.8 4.85-2.57 8.69-6.12 11.51-10.71h29.28c-4.95 12.7-12.35 22.59-22.22 29.63-9.85 7.02-21.25 10.54-34.2 10.54-8.69 0-16.68-1.51-24-4.59-7.31-3.08-13.86-7.64-19.69-13.65-5.5-5.7-9.78-12.34-12.82-19.86-3.04-7.53-4.55-15.24-4.55-23.17 0-8.14 1.4-15.78 4.19-22.95 2.79-7.2 6.91-13.64 12.35-19.36 5.93-6.29 12.66-11.15 20.16-14.51 7.49-3.4 15.2-5.1 23.2-5.1 10.1 0 19.54 2.28 28.3 6.87 8.76 4.6 16.22 11.09 22.37 19.4 3.77 5.04 6.52 10.65 8.33 16.86 1.82 6.24 2.71 13.36 2.71 21.43 0 .61-.04 1.59-.1 2.89-.08 1.34-.11 2.28-.11 2.93m-29.08-21.52c-2.31-7.79-6.21-13.68-11.72-17.77-5.46-4.06-12.38-6.08-20.7-6.08-7.24 0-13.68 2.2-19.4 6.59-5.76 4.37-9.59 10.13-11.59 17.26h63.41z" class="st0"/><path d="M444.64 128.28l-24.18 37.14h-29.67l39.55-60.56-34.99-56.1h30.44l20.12 33.3 20.66-33.3h31.71l-37.2 55.34 37.63 61.32h-30.84M315.43 27.41l19.6 10.26 27.4-27.4L342.83 0" class="st0"/><path d="M7.42 199.97c-2.05 0-3.93-.76-5.34-2.17-1.97-1.96-1.97-4.02-1.97-8.45s0-6.48 1.97-8.45c1.41-1.41 3.28-2.17 5.34-2.17 3.75 0 6.54 2.29 7.24 6.22h-2.29c-.56-2.55-2.35-4.22-4.96-4.22-1.38 0-2.7.53-3.61 1.47-1.32 1.35-1.47 2.79-1.47 7.16s.15 5.81 1.47 7.15c.91.94 2.23 1.47 3.61 1.47 2.61 0 4.46-1.67 5.01-4.22h2.23c-.66 3.92-3.5 6.21-7.23 6.21m33.25-2.17c-1.41 1.41-3.25 2.17-5.34 2.17s-3.93-.76-5.34-2.17c-1.97-1.96-1.97-4.02-1.97-8.45s0-6.48 1.97-8.45c1.41-1.41 3.26-2.17 5.34-2.17s3.93.76 5.34 2.17c1.97 1.96 1.97 4.02 1.97 8.45s0 6.48-1.97 8.45m-1.72-15.57c-.91-.94-2.23-1.49-3.61-1.49s-2.7.56-3.61 1.49c-1.32 1.35-1.47 2.76-1.47 7.13s.15 5.78 1.47 7.13c.91.94 2.23 1.5 3.61 1.5s2.7-.56 3.61-1.5c1.32-1.35 1.47-2.76 1.47-7.13s-.15-5.78-1.47-7.13m23.54 17.74c-3.14 0-5.19-.79-7.16-2.76l1.53-1.52c1.73 1.73 3.34 2.29 5.69 2.29 3.05 0 4.93-1.44 4.93-3.87 0-1.09-.32-2.02-1-2.61-.67-.59-1.2-.76-2.73-1l-2.43-.38c-1.64-.26-2.93-.79-3.84-1.58-1.06-.94-1.58-2.23-1.58-3.9 0-3.55 2.55-5.89 6.69-5.89 2.67 0 4.43.67 6.22 2.29l-1.44 1.44c-1.29-1.17-2.67-1.79-4.87-1.79-2.79 0-4.4 1.55-4.4 3.87 0 1.03.29 1.85.94 2.4.65.56 1.73.97 2.82 1.14l2.29.35c1.96.29 2.93.7 3.81 1.46 1.14.97 1.76 2.41 1.76 4.14-.02 3.66-2.89 5.92-7.23 5.92m36.77-.18v-15.86l-5.72 12.58h-1.9l-5.81-12.58v15.86H83.6v-20.88h2.23l6.8 14.81 6.63-14.81h2.23v20.88zm17.5 0v-20.88h12.97v2h-10.74v7.36h9.15v1.99h-9.15v7.54h10.74v1.99zm32.96-18.88v18.88h-2.23v-18.88h-6.04v-2h14.31v2zm19.18-2h2.23v20.88h-2.23zm24.01 21.06c-2.05 0-3.93-.76-5.34-2.17-1.96-1.96-1.96-4.02-1.96-8.45s0-6.48 1.96-8.45c1.41-1.41 3.28-2.17 5.34-2.17 3.75 0 6.54 2.29 7.24 6.22h-2.29c-.56-2.55-2.35-4.22-4.96-4.22-1.38 0-2.7.53-3.61 1.47-1.32 1.35-1.47 2.79-1.47 7.16s.15 5.81 1.47 7.15c.91.94 2.23 1.47 3.61 1.47 2.61 0 4.46-1.67 5.01-4.22h2.23c-.66 3.92-3.5 6.21-7.23 6.21m26.78 0c-3.14 0-5.19-.79-7.16-2.76l1.52-1.52c1.73 1.73 3.34 2.29 5.69 2.29 3.05 0 4.93-1.44 4.93-3.87 0-1.09-.32-2.02-1-2.61-.67-.59-1.2-.76-2.73-1l-2.43-.38c-1.64-.26-2.93-.79-3.84-1.58-1.06-.94-1.58-2.23-1.58-3.9 0-3.55 2.55-5.89 6.69-5.89 2.67 0 4.43.67 6.22 2.29l-1.44 1.44c-1.29-1.17-2.67-1.79-4.87-1.79-2.79 0-4.4 1.55-4.4 3.87 0 1.03.29 1.85.94 2.4.65.56 1.73.97 2.82 1.14l2.29.35c1.96.29 2.93.7 3.81 1.46 1.14.97 1.76 2.41 1.76 4.14-.01 3.66-2.88 5.92-7.22 5.92m68.05-.18l-1.88-2.29c-.85.79-2.82 2.46-6.16 2.46-4.05 0-6.6-2.43-6.6-6.07 0-3.14 2.23-4.72 4.52-6.25-1.03-1.23-2.26-2.67-2.26-4.55 0-2.49 1.93-4.37 4.6-4.37 2.61 0 4.55 1.91 4.55 4.4 0 1.67-1 2.82-2.32 3.73 0 0-1.06.7-1.55 1.06l5.34 6.42c.85-1.29 1.14-2.43 1.17-4.78h2.11c-.03 2.64-.59 4.78-1.94 6.39l3.2 3.84h-2.78zm-8.88-10.73c-1.79 1.23-3.58 2.4-3.58 4.78 0 2.49 1.82 4.16 4.4 4.16 1.55 0 3.14-.41 4.93-2.02l-5.75-6.92zm1.11-8.42c-1.44 0-2.41 1.03-2.41 2.43 0 .97.5 1.76 1.88 3.43.35-.23 1.11-.76 1.11-.76.97-.68 1.88-1.41 1.88-2.61 0-1.4-1.05-2.49-2.46-2.49m65.65 10.56h-5.54v8.59h-2.23v-20.88h7.77c3.81 0 6.45 2.38 6.45 6.13s-2.63 6.16-6.45 6.16m-.2-10.29h-5.34v8.3h5.34c2.61 0 4.43-1.41 4.43-4.16 0-2.76-1.82-4.14-4.43-4.14m32.28 18.88v-9.53h-9.91v9.53h-2.23v-20.88h2.23v9.36h9.91v-9.36h2.23v20.88zm29.68 0l-1.67-4.72h-9.12l-1.67 4.72h-2.38l7.68-20.88h1.88l7.65 20.88h-2.37zm-6.19-17.68l-3.93 11.03h7.8l-3.87-11.03zm33.16 17.68l-4.75-9.27h-5.01v9.27h-2.23v-20.88h8.01c3.64 0 6.19 2.2 6.19 5.81 0 3.05-1.85 5.04-4.55 5.6l4.96 9.47h-2.62zm-4.19-18.88h-5.57v7.65h5.57c2.43 0 4.16-1.26 4.16-3.81s-1.73-3.84-4.16-3.84m36.33 18.88v-15.86l-5.72 12.58h-1.9l-5.81-12.58v15.86h-2.23v-20.88h2.23l6.8 14.81 6.63-14.81h2.23v20.88zm29.67 0l-1.67-4.72h-9.12l-1.67 4.72h-2.38l7.68-20.88h1.88l7.65 20.88h-2.37zm-6.18-17.68l-3.93 11.03h7.8l-3.87-11.03z" fill="#707173"/></svg>