<svg width="170" height="30" viewBox="0 0 170 30" fill="none" xmlns="http://www.w3.org/2000/svg">
<g id="formeds_logo" clip-path="url(#clip0_326_34610)">
<g id="Group">
<path id="Vector" d="M89.77 10.4104C91.2234 11.9912 91.9483 14.3443 91.9483 17.4769V29.745H89.7482V17.6044C89.7482 15.1493 89.2273 13.2734 88.1819 11.9767C87.1365 10.6799 85.6722 10.0315 83.7817 10.0315C81.7783 10.0315 80.1792 10.7564 78.9808 12.2098C77.7824 13.6632 77.1559 15.6156 77.0976 18.0706V29.7486H74.9412V17.608C74.9412 15.153 74.4131 13.277 73.3531 11.9803C72.2967 10.6836 70.8069 10.0352 68.891 10.0352C66.8584 10.0352 65.2375 10.8402 64.0245 12.4465C62.8116 14.0529 62.2069 16.1838 62.2069 18.8356V29.7523H60.0906V8.29404H61.9519L62.2907 12.9055C62.8553 11.4412 63.7295 10.261 64.9133 9.37223C66.0971 8.48345 67.5505 8.03906 69.2698 8.03906C70.9891 8.03906 72.4716 8.49802 73.7137 9.41594C74.9558 10.3339 75.83 11.667 76.3363 13.4155C76.9847 11.7508 77.9573 10.4395 79.254 9.48151C80.5508 8.52352 82.1462 8.04271 84.033 8.04271C86.4007 8.04271 88.313 8.83314 89.7664 10.4104H89.77Z" fill="#314C85"/>
<path id="Vector_2" d="M96.4066 13.288C97.2371 11.6233 98.41 10.3339 99.918 9.41594C101.426 8.49802 103.142 8.03906 105.058 8.03906C106.974 8.03906 108.624 8.43974 110.092 9.24474C111.56 10.0497 112.722 11.2117 113.581 12.7343C114.441 14.2569 114.9 16.0636 114.954 18.1508C114.954 18.5478 114.94 18.8429 114.911 19.0395H97.4374C97.4083 19.1525 97.3937 19.32 97.3937 19.5459C97.4229 21.2105 97.7762 22.6821 98.45 23.9679C99.1276 25.2501 100.056 26.2518 101.244 26.973C102.428 27.6906 103.768 28.0512 105.262 28.0512C107.01 28.0512 108.533 27.5631 109.829 26.5905C111.126 25.618 111.986 24.2994 112.412 22.6347H114.612C114.106 24.8348 113.024 26.6124 111.374 27.9638C109.724 29.3188 107.742 29.9963 105.429 29.9963C103.426 29.9963 101.641 29.5301 100.078 28.6012C98.512 27.6724 97.299 26.372 96.4394 24.711C95.5797 23.0463 95.1499 21.1413 95.1499 18.9995C95.1499 16.8577 95.5651 14.9526 96.3993 13.288H96.4066ZM112.718 17.2219C112.521 14.9089 111.738 13.1168 110.368 11.8492C108.999 10.5816 107.243 9.94411 105.101 9.94411C103.805 9.94411 102.606 10.2464 101.506 10.8547C100.406 11.4631 99.5028 12.3154 98.7997 13.4155C98.0931 14.5155 97.6851 15.7831 97.5722 17.2219H112.718Z" fill="#314C85"/>
<path id="Vector_3" d="M138.045 0.12793V29.7418H136.183L135.844 24.8754C135.138 26.4271 134.081 27.6692 132.672 28.5981C131.262 29.5306 129.598 29.9932 127.678 29.9932C125.758 29.9932 123.992 29.5415 122.454 28.6381C120.917 27.7348 119.719 26.4599 118.859 24.8098C118 23.1597 117.57 21.2219 117.57 18.9927C117.57 16.7634 118 14.9895 118.859 13.3249C119.719 11.6602 120.917 10.3635 122.454 9.43099C123.992 8.4985 125.733 8.03589 127.678 8.03589C129.623 8.03589 131.346 8.48757 132.756 9.39092C134.165 10.2943 135.211 11.5364 135.885 13.1136V0.12793H138.041H138.045ZM132.056 26.9079C133.284 26.1466 134.234 25.083 134.912 23.7134C135.589 22.3475 135.928 20.7884 135.928 19.04C135.928 17.2916 135.589 15.7253 134.912 14.3448C134.234 12.9643 133.284 11.8861 132.056 11.1066C130.829 10.3307 129.426 9.94459 127.845 9.94459C126.265 9.94459 124.862 10.3343 123.635 11.1066C122.407 11.8824 121.456 12.9533 120.779 14.3229C120.101 15.6925 119.763 17.2479 119.763 18.9963C119.763 20.7447 120.101 22.311 120.779 23.6916C121.456 25.0757 122.407 26.1466 123.635 26.9079C124.862 27.6692 126.265 28.0517 127.845 28.0517C129.426 28.0517 130.829 27.6692 132.056 26.9079Z" fill="#314C85"/>
<path id="Vector_4" d="M143.669 23.1447C143.752 24.6964 144.415 25.9167 145.657 26.8055C146.9 27.6943 148.535 28.1387 150.564 28.1387C152.341 28.1387 153.806 27.7562 154.964 26.9949C156.119 26.2336 156.698 25.2319 156.698 23.9898C156.698 23.0027 156.421 22.2341 155.875 21.6841C155.325 21.134 154.611 20.7406 153.737 20.5002C152.862 20.2598 151.693 20.0267 150.225 19.8009C148.418 19.5459 146.954 19.2581 145.825 18.9339C144.696 18.6098 143.767 18.067 143.031 17.3057C142.299 16.5444 141.931 15.4881 141.931 14.1331C141.931 12.9492 142.277 11.8893 142.969 10.9604C143.661 10.0279 144.605 9.30306 145.803 8.78217C147.002 8.26129 148.364 7.99902 149.886 7.99902C152.342 7.99902 154.334 8.54176 155.875 9.62724C157.412 10.7127 158.279 12.2863 158.476 14.3443H156.319C156.122 12.9638 155.452 11.871 154.308 11.066C153.165 10.261 151.733 9.86036 150.014 9.86036C148.295 9.86036 146.798 10.2428 145.697 11.0041C144.597 11.7654 144.047 12.7525 144.047 13.9655C144.047 14.898 144.321 15.6156 144.871 16.1219C145.421 16.6282 146.091 16.9815 146.881 17.1782C147.672 17.3749 148.812 17.5753 150.309 17.772C152.141 18.0269 153.653 18.3439 154.837 18.7227C156.02 19.1051 156.986 19.7025 157.736 20.5221C158.483 21.3417 158.858 22.4563 158.858 23.8659C158.858 25.7273 158.06 27.2171 156.468 28.3281C154.873 29.4427 152.906 30 150.568 30C147.861 30 145.687 29.4026 144.051 28.2006C142.416 27.0022 141.57 25.3157 141.512 23.1447H143.669Z" fill="#314C85"/>
<path id="Vector_5" d="M160.585 2.41501C161.018 1.67193 161.605 1.08184 162.351 0.648373C163.094 0.21491 163.925 0 164.839 0C165.753 0 166.613 0.211268 167.363 0.637445C168.114 1.06362 168.708 1.64643 169.141 2.38951C169.574 3.13259 169.789 3.96309 169.789 4.87737C169.789 5.79165 169.571 6.62215 169.141 7.36523C168.708 8.1083 168.114 8.69476 167.363 9.11729C166.613 9.54347 165.768 9.75474 164.839 9.75474C163.91 9.75474 163.094 9.54347 162.351 9.11729C161.608 8.69111 161.018 8.1083 160.585 7.36523C160.151 6.62215 159.936 5.79893 159.936 4.89922C159.936 3.99951 160.151 3.15444 160.585 2.41136V2.41501ZM168.504 2.73555C168.136 2.09082 167.633 1.58451 166.996 1.21661C166.358 0.848713 165.637 0.666586 164.839 0.666586C164.041 0.666586 163.342 0.848713 162.705 1.21661C162.067 1.58451 161.564 2.09082 161.197 2.73555C160.829 3.38028 160.647 4.10515 160.647 4.90651C160.647 5.70787 160.832 6.40359 161.197 7.04104C161.564 7.67848 162.067 8.18116 162.705 8.54905C163.342 8.91695 164.052 9.09908 164.839 9.09908C165.626 9.09908 166.358 8.91695 166.996 8.54905C167.633 8.18116 168.136 7.67484 168.504 7.03011C168.871 6.38538 169.054 5.6678 169.054 4.88465C169.054 4.10151 168.868 3.38392 168.504 2.73919V2.73555ZM165.083 2.08718C165.673 2.08718 166.143 2.24381 166.493 2.55342C166.843 2.86304 167.021 3.26372 167.021 3.75546C167.021 4.16343 166.897 4.50583 166.653 4.7863C166.409 5.06314 166.074 5.24527 165.648 5.3254L167.047 7.67848H166.238L164.937 5.4456H163.735V7.67848H163.025V2.08354H165.083V2.08718ZM163.735 4.83366H165.061C165.422 4.83366 165.713 4.73895 165.943 4.55318C166.172 4.36377 166.285 4.09786 166.285 3.75546C166.285 3.41306 166.172 3.17266 165.943 2.98324C165.713 2.79383 165.418 2.70277 165.061 2.70277H163.735V4.8373V4.83366Z" fill="#314C85"/>
<path id="Vector_6" d="M4.691 7.99947L5.02976 6.13813C5.42316 4.13473 6.16623 2.634 7.25171 1.6323C8.33719 0.630601 9.97998 0.12793 12.1801 0.12793H17.5091L16.6203 5.20564H13.1089C12.3768 5.20564 11.8413 5.3477 11.5026 5.62817C11.1638 5.90865 10.938 6.36032 10.825 6.9832L10.6575 7.99947H16.114L15.2252 13.0335H9.76871L6.80732 29.7455H0.840834L3.80222 13.0335H0.207031L1.09581 7.99947H4.691Z" fill="#314C85"/>
<path id="Vector_7" d="M20.1135 28.7288C18.5909 27.8838 17.4071 26.7182 16.5584 25.2393C15.7133 23.7604 15.2908 22.1031 15.2908 20.2672C15.2908 17.7284 15.8117 15.521 16.8571 13.6451C17.8988 11.7692 19.3813 10.3158 21.301 9.28858C23.2206 8.25774 25.4462 7.74414 27.985 7.74414C29.9593 7.74414 31.7077 8.16668 33.2303 9.01175C34.7529 9.85682 35.9367 11.0224 36.7854 12.5013C37.6305 13.9802 38.053 15.6375 38.053 17.4734C38.053 20.0122 37.5322 22.2196 36.4867 24.0955C35.4413 25.9714 33.9625 27.4248 32.0428 28.452C30.1232 29.4828 27.8976 29.9964 25.3588 29.9964C23.3845 29.9964 21.6361 29.5739 20.1135 28.7288ZM29.1689 24.1174C30.1269 23.4399 30.8554 22.5292 31.3471 21.3891C31.8389 20.2454 32.0865 18.9996 32.0865 17.6446C32.0865 16.1803 31.664 14.9709 30.8189 14.0275C29.9739 13.0841 28.8847 12.6106 27.5625 12.6106C26.2403 12.6106 25.1803 12.9566 24.2186 13.6451C23.2607 14.3371 22.5249 15.2514 22.0186 16.3952C21.5122 17.5389 21.2573 18.7701 21.2573 20.096C21.2573 21.564 21.6798 22.7696 22.5249 23.7131C23.3699 24.6601 24.47 25.13 25.825 25.13C27.0926 25.13 28.2072 24.7913 29.1689 24.1137V24.1174Z" fill="#314C85"/>
<path id="Vector_8" d="M56.2876 7.99902L55.315 13.4155H53.1149C51.4211 13.4155 50.0552 13.9582 49.0098 15.0437C47.9644 16.1292 47.2905 17.5461 46.9772 19.2946L45.1596 29.745H39.1931L42.9996 7.99902H48.416V10.9604C49.2065 9.97328 50.1135 9.23385 51.1443 8.73846C52.1751 8.24672 53.4792 7.99902 55.0564 7.99902H56.2839H56.2876Z" fill="#314C85"/>
</g>
</g>
<defs>
<clipPath id="clip0_326_34610">
<rect width="169.586" height="30" fill="white" transform="translate(0.207031)"/>
</clipPath>
</defs>
</svg>
