<svg xmlns="http://www.w3.org/2000/svg" width="203.773" height="25.912" viewBox="0 0 203.773 25.912">
  <path id="Path_16" d="M10.178,18.02V15.045H18.9V25.584H16.229l-.5-2.572a7.231,7.231,0,0,1-6.353,3.025,8.742,8.742,0,0,1-6.807-2.824A10.831,10.831,0,0,1-.007,15.8,10.679,10.679,0,0,1,2.615,8.338,9.125,9.125,0,0,1,9.674,5.565a9.428,9.428,0,0,1,6.1,1.866A7.675,7.675,0,0,1,18.7,12.524H14.868A4.628,4.628,0,0,0,13.052,9.8,5.442,5.442,0,0,0,9.674,8.792a5.384,5.384,0,0,0-4.286,1.866,7.741,7.741,0,0,0-1.563,5.093,7.566,7.566,0,0,0,1.614,5.143A5.429,5.429,0,0,0,9.825,22.76a5.762,5.762,0,0,0,3.782-1.311,4.821,4.821,0,0,0,1.714-3.429Zm23.548,7.564H30.247a5.3,5.3,0,0,1-.4-1.714,5.155,5.155,0,0,1-4.538,2.067,6.235,6.235,0,0,1-3.731-1.109A3.9,3.9,0,0,1,20.162,21.7c0-2.572,1.815-4.084,5.446-4.437l2.118-.2a3.177,3.177,0,0,0,1.513-.5,1.319,1.319,0,0,0,.454-1.109,1.493,1.493,0,0,0-.605-1.311,3.344,3.344,0,0,0-1.967-.454,3.641,3.641,0,0,0-2.168.5,2.289,2.289,0,0,0-.756,1.765H20.767c.3-3.278,2.42-4.891,6.454-4.891q5.9,0,5.9,4.236v7.564A5.141,5.141,0,0,0,33.726,25.584Zm-7.564-2.168a3.788,3.788,0,0,0,2.622-.908,3.275,3.275,0,0,0,1.008-2.572V18.625a2.716,2.716,0,0,1-1.614.555l-1.866.2a3.974,3.974,0,0,0-1.967.656,1.831,1.831,0,0,0-.605,1.412,1.677,1.677,0,0,0,.605,1.412,2.678,2.678,0,0,0,1.815.555ZM42.7,11.162a4.892,4.892,0,0,1,.857.05v3.177h-.908A4.4,4.4,0,0,0,39.626,15.4a3.827,3.827,0,0,0-1.059,2.975v7.211H35.088V11.364h3.328v2.521A4.394,4.394,0,0,1,42.7,11.162Zm9.782-.1a4.978,4.978,0,0,1,3.631,1.311,5.164,5.164,0,0,1,1.361,3.782v9.379H54.047V16.759a2.318,2.318,0,0,0-2.017-2.672h0a1.439,1.439,0,0,0-.656,0,3.008,3.008,0,0,0-2.219.958,3.564,3.564,0,0,0-.908,2.622v7.967H44.769V11.364h3.378v2.017a4.857,4.857,0,0,1,4.336-2.32Zm20.472,7.664v.807H62.367a4.291,4.291,0,0,0,1.16,2.723,3.622,3.622,0,0,0,2.521.908,3.191,3.191,0,0,0,3.227-2.017H72.6a5.859,5.859,0,0,1-2.32,3.429A6.95,6.95,0,0,1,66,25.886,6.617,6.617,0,0,1,60.9,23.869a7.57,7.57,0,0,1-1.916-5.4,7.57,7.57,0,0,1,1.916-5.4A6.617,6.617,0,0,1,66,11.061a6.53,6.53,0,0,1,5.093,2.118,7.976,7.976,0,0,1,1.866,5.547ZM65.9,13.734c-2.017,0-3.177,1.109-3.53,3.378h7.11a4.19,4.19,0,0,0-1.16-2.471,3.352,3.352,0,0,0-2.42-.908Zm16.186-2.572a4.892,4.892,0,0,1,.857.05v3.177h-.908A4.4,4.4,0,0,0,79.007,15.4a3.827,3.827,0,0,0-1.059,2.975v7.211H74.469V11.364H77.8v2.521A4.486,4.486,0,0,1,82.083,11.162ZM93.429,25.987a9.387,9.387,0,0,1-7.11-2.824,10.086,10.086,0,0,1-2.672-7.412,10.518,10.518,0,0,1,2.672-7.412,10.367,10.367,0,0,1,14.169,0,10.085,10.085,0,0,1,2.672,7.412,10.085,10.085,0,0,1-2.672,7.412A9.03,9.03,0,0,1,93.429,25.987ZM87.529,15.8a7.517,7.517,0,0,0,1.614,5.093,5.893,5.893,0,0,0,8.32.3l.3-.3A7.517,7.517,0,0,0,99.379,15.8a7.517,7.517,0,0,0-1.614-5.093,5.893,5.893,0,0,0-8.32-.3h0l-.3.3A7.612,7.612,0,0,0,87.529,15.8ZM110.22,25.937c-4.135,0-6.3-1.614-6.5-4.891h3.378a2.6,2.6,0,0,0,.857,1.866,4,4,0,0,0,2.269.555c1.866,0,2.824-.555,2.824-1.714a1.349,1.349,0,0,0-.605-1.16,6.447,6.447,0,0,0-2.168-.706l-1.614-.252c-3.076-.5-4.639-1.916-4.639-4.286a3.631,3.631,0,0,1,1.563-3.126,7.053,7.053,0,0,1,4.336-1.16c4.034,0,6.1,1.614,6.253,4.79h-3.227a2.13,2.13,0,0,0-.807-1.815,3.744,3.744,0,0,0-2.219-.555c-1.664,0-2.471.555-2.471,1.664A1.339,1.339,0,0,0,108,16.255a3.887,3.887,0,0,0,1.815.605l1.765.252a7.628,7.628,0,0,1,3.731,1.513,3.525,3.525,0,0,1,1.16,2.824,3.864,3.864,0,0,1-1.664,3.278,7.417,7.417,0,0,1-4.589,1.21Zm15.329-14.875a5.841,5.841,0,0,1,4.639,2.017,8.13,8.13,0,0,1,1.714,5.4,8.046,8.046,0,0,1-1.714,5.4,5.687,5.687,0,0,1-4.639,2.017,5.019,5.019,0,0,1-4.538-2.37v2.017h-3.328V5.969h3.479v7.211A4.938,4.938,0,0,1,125.549,11.061Zm-3.53,10.791a3.557,3.557,0,0,0,5.345-.1,5.238,5.238,0,0,0,.958-3.429,4.966,4.966,0,0,0-.958-3.328,3.261,3.261,0,0,0-2.723-1.16,3.378,3.378,0,0,0-2.672,1.16,5.023,5.023,0,0,0-.958,3.378,5.455,5.455,0,0,0,1.008,3.479Zm23.145,2.017a7.69,7.69,0,0,1-10.438,0,7.365,7.365,0,0,1-2.017-5.4,7.365,7.365,0,0,1,2.017-5.4,7.69,7.69,0,0,1,10.438,0,7.4,7.4,0,0,1,1.967,5.4A7.322,7.322,0,0,1,145.164,23.869Zm-7.917-2.017a3.669,3.669,0,0,0,5.194.2c.1-.05.151-.151.2-.2a5.023,5.023,0,0,0,.958-3.378,5.358,5.358,0,0,0-.908-3.378,3.671,3.671,0,0,0-5.194-.252h0c-.1.05-.151.151-.2.2a5.023,5.023,0,0,0-.958,3.378,5.336,5.336,0,0,0,.908,3.429Zm19.01-10.69a4.892,4.892,0,0,1,.857.05v3.177h-.908a4.4,4.4,0,0,0-3.025,1.008,3.827,3.827,0,0,0-1.059,2.975v7.211h-3.479V11.364h3.328v2.521A4.394,4.394,0,0,1,156.257,11.162Zm9.782-.1a4.978,4.978,0,0,1,3.631,1.311,4.927,4.927,0,0,1,1.311,3.782v9.379H167.5V16.759a2.318,2.318,0,0,0-2.017-2.672h0a1.439,1.439,0,0,0-.656,0,3.008,3.008,0,0,0-2.219.958,3.564,3.564,0,0,0-.908,2.622v7.967h-3.479V11.364h3.328v2.017a5.284,5.284,0,0,1,4.488-2.32Zm20.472,7.664v.807H175.922a4.291,4.291,0,0,0,1.16,2.723,3.622,3.622,0,0,0,2.521.908,3.191,3.191,0,0,0,3.227-2.017h3.328a5.859,5.859,0,0,1-2.32,3.429,7.24,7.24,0,0,1-4.286,1.261,6.617,6.617,0,0,1-5.093-2.017,7.4,7.4,0,0,1-1.967-5.4,7.57,7.57,0,0,1,1.916-5.4,6.617,6.617,0,0,1,5.093-2.017,6.487,6.487,0,0,1,5.093,2.067A8.192,8.192,0,0,1,186.511,18.726ZM179.5,13.734c-2.017,0-3.177,1.109-3.53,3.378h7.11a4.19,4.19,0,0,0-1.16-2.471,3.523,3.523,0,0,0-2.42-.908Zm21.128-7.11h0a4.54,4.54,0,1,0-3.479,5.4A4.625,4.625,0,0,0,200.63,8.54h1.008a5.559,5.559,0,1,1-4.488-6.454,5.44,5.44,0,0,1,3.731,2.521H203.1a7.437,7.437,0,1,0,.656,2.925,6.1,6.1,0,0,0-.05-.958l-3.076.05Zm-4.437,3.53a2.572,2.572,0,1,1,2.572-2.572h0a2.582,2.582,0,0,1-2.572,2.572Z" transform="translate(0.015 -0.139)"/>
</svg>
